<svg width="34" height="34" viewBox="0 0 34 34" fill="none" xmlns="http://www.w3.org/2000/svg">
<g clip-path="url(#clip0_257_330)">
<path d="M33.9999 0H29.6621V4.42235H33.9999V0Z" fill="black"/>
<path d="M20.0429 9.73535C13.9145 9.73535 10.1064 13.5163 10.1064 19.6026V24.1337C10.1064 30.22 13.9145 34 20.0429 34C26.1713 34 29.9338 30.3116 29.9338 24.1337V19.6026C29.9338 13.4238 26.2361 9.73535 20.0429 9.73535ZM25.4962 24.1337C25.4962 26.1504 25.068 27.5806 24.1872 28.5072C23.3098 29.4312 21.9535 29.88 20.0429 29.88C18.1323 29.88 16.7488 29.4312 15.8636 28.5072C14.9757 27.5806 14.544 26.1504 14.544 24.1337V19.6026C14.544 15.8961 16.4967 13.8554 20.0429 13.8554C24.5505 13.8554 25.4962 16.9803 25.4962 19.6026V24.1337Z" fill="black"/>
<path d="M0 10.1422V33.5933H4.27474V10.1422H0Z" fill="black"/>
</g>
<defs>
<clipPath id="clip0_257_330">
<rect width="34" height="34" fill="white"/>
</clipPath>
</defs>
</svg>
